<svg height="512pt" viewBox="0 0 512 512" width="512pt" xmlns="http://www.w3.org/2000/svg" xmlns:xlink="http://www.w3.org/1999/xlink"><linearGradient id="a" gradientUnits="userSpaceOnUse" x1="256" x2="256" y1="-.0001" y2="511.2841"><stop offset="0" stop-color="#2af598"/><stop offset="1" stop-color="#009efd"/></linearGradient><path d="m256 511.285156-89.285156-89.285156h-106.714844c-33.085938 0-60-26.914062-60-60v-302c0-33.085938 26.914062-60 60-60h392c33.085938 0 60 26.914062 60 60v302c0 33.085938-26.914062 60-60 60h-106.714844zm-196-471.285156c-11.027344 0-20 8.972656-20 20v302c0 11.027344 8.972656 20 20 20h123.285156l72.714844 72.714844 72.714844-72.714844h123.285156c11.027344 0 20-8.972656 20-20v-302c0-11.027344-8.972656-20-20-20zm342 70h-292v40h292zm0 80h-292v40h292zm-96 80h-196v40h196zm0 0" fill="url(#a)"/></svg>